PathFileType	4	(X/Y/Z)	C:\Users\WrightLab\Desktop\Jo\P1.2Trial3.trc
DataRate	CameraRate	NumFrames	NumMarkers	Units	OrigDataRate	OrigDataStartFrame	OrigNumFrames
100.00	100.00	       9	19	mm	100.00	494	       658
Frame#	Time	Headset_Front			Headset_Back			Headset_Left			Headset_Right			Left_Shoulder			Right_Shoulder			Sternum			C7			Left Elbow			Right Elbow			Left Wrist			Right Wrist			Left ASIS			Right ASIS			S2			Left Knee			Right Knee			Left Ankle			Right Ankle			
		X1	Y1	Z1	X2	Y2	Z2	X3	Y3	Z3	X4	Y4	Z4	X5	Y5	Z5	X6	Y6	Z6	X7	Y7	Z7	X8	Y8	Z8	X9	Y9	Z9	X10	Y10	Z10	X11	Y11	Z11	X12	Y12	Z12	X13	Y13	Z13	X14	Y14	Z14	X15	Y15	Z15	X16	Y16	Z16	X17	Y17	Z17	X18	Y18	Z18	X19	Y19	Z19	

494	4.930	-11.33119	1446.69043	1718.58557				173.05540	1507.05017	1641.11890				318.68033	1297.64526	1629.50281	-68.89552	1292.93347	1452.44592	77.39265	1227.31970	1653.93188	167.23340	1346.16235	1440.73071	421.48859	1021.62054	1636.47876	-102.14684	1054.61609	1351.74609	463.73926	832.81335	1774.47119	-210.51021	815.04309	1353.29089	216.44696	923.28815	1688.19702	-40.92086	908.34351	1596.33972	187.64293	951.14014	1370.16223	275.58691	472.23947	1635.42334	-67.85241	528.25952	1702.56262	330.47491	141.01129	1528.07837	-21.70883	175.94589	1673.99829	
495	4.940	-16.34541	1445.20154	1727.18372				169.16499	1505.73499	1650.82800				315.36353	1296.83850	1640.91846	-70.71445	1291.53772	1459.95667	73.90765	1226.91797	1663.92761	165.85277	1345.44763	1450.56689	418.92526	1020.74188	1648.33276	-102.35251	1053.84814	1358.23157	459.51849	833.99127	1792.16516	-209.88586	813.64606	1356.39917	214.31003	921.90283	1696.04968	-42.81490	906.79425	1603.50305	184.72815	950.93640	1379.23328	272.75635	471.51456	1641.06995	-68.59047	525.95636	1709.50269	329.58652	140.74966	1528.72803	-30.07174	173.92378	1700.87415	
496	4.950	-20.96154	1443.96252	1735.13916				166.29123	1503.76843	1657.20044				312.11786	1295.70569	1652.12170	-72.21434	1289.97595	1467.83093	71.13465	1225.06531	1673.15234	164.08925	1344.41626	1460.63049	416.55377	1019.84961	1663.38623	-102.20580	1052.72510	1364.90698	455.53915	833.85632	1807.51306	-209.38333	812.63251	1360.18188	211.80281	920.99207	1704.23535	-45.57011	904.14417	1612.05298	182.18842	950.56525	1388.74475	270.87695	469.36102	1645.47498	-69.44343	523.19836	1715.22852	329.41913	140.63000	1528.82996	-38.14180	172.20798	1725.68860	
497	4.960	-25.30204	1442.67334	1741.99390				161.61597	1502.32288	1667.42004				308.30923	1294.59143	1662.29480	-73.34861	1288.17749	1474.94775	67.97685	1222.89233	1680.65210	162.17491	1342.96155	1469.66455	413.53912	1019.18512	1678.37744	-102.78925	1051.05652	1370.70154	451.70929	833.94904	1823.99390	-209.28169	811.44507	1363.84607	209.21460	919.12463	1711.55920	-48.70918	903.03784	1620.51758	179.90669	950.24622	1398.29370	268.45645	467.58853	1652.91199	-69.56678	519.24982	1720.43225	329.97540	140.79594	1530.50867	-46.20878	170.02679	1748.82324	
498	4.970	-30.45777	1440.88806	1749.75232				158.20142	1500.56067	1676.71008				304.89105	1293.43457	1673.12573	-76.20332	1286.34448	1482.83496	63.79599	1221.10632	1689.89490	160.39578	1341.68420	1479.47192	410.35147	1018.45605	1693.23157	-103.47243	1049.56995	1378.39502	446.76590	833.76544	1840.84338	-208.74315	809.72150	1368.12952	207.16107	918.29498	1720.10535	-50.93089	899.88361	1626.75452	176.14925	949.27557	1407.38220	266.75470	466.85236	1660.09192	-70.56532	514.91925	1725.44421	329.64090	140.95665	1531.80505	-52.81648	172.86700	1774.88171	
499	4.980	-35.40682	1439.44666	1756.96362				153.88051	1498.80469	1687.42261				301.42010	1291.83911	1684.00818	-78.16403	1284.75696	1490.39575	60.28762	1219.36621	1700.48499	157.93109	1340.03589	1489.17651	406.58417	1017.09357	1706.62659	-103.85810	1047.94592	1385.89771	441.37497	834.31427	1856.54309	-208.89175	808.33246	1372.40112	204.18472	916.52380	1729.11450	-54.20244	897.77490	1636.04272	172.98990	948.11414	1417.24976	265.28922	464.66455	1665.66638	-71.39094	509.41071	1731.18640	329.41949	141.62721	1533.37915	-60.72295	174.92018	1796.96375	
500	4.990	-40.23651	1437.20142	1764.46765				149.97685	1497.33118	1696.15771				297.19644	1290.27429	1694.92334	-80.73553	1283.54199	1499.17615	57.27258	1217.74475	1708.87231	155.20540	1338.21265	1498.35144	404.00528	1015.68054	1720.83752	-104.61675	1045.93054	1393.89050	436.95908	833.54944	1872.81714	-208.87003	806.30017	1376.81604	201.18930	914.94189	1736.48523	-57.20290	895.73730	1644.33813	169.84465	946.87976	1426.73071	262.80246	463.35797	1674.30554	-71.76922	503.61188	1735.42407	328.88098	141.79684	1535.08752	-68.50523	178.32635	1816.71582	
501	5.000	-45.13089	1435.72583	1772.37866				145.53354	1495.07190	1705.60217				293.32074	1288.40173	1705.16089	-83.84209	1281.51782	1507.55042	52.94755	1215.64600	1717.84827	152.41348	1336.69299	1507.83289	400.01736	1014.48938	1737.27576	-105.63747	1043.96558	1401.70740	429.89905	835.57916	1889.88831	-209.26575	804.64642	1382.67969	198.61902	912.94934	1745.96411	-60.40192	893.83899	1652.93738	166.01845	945.25104	1435.90381	261.83447	462.00223	1681.61731	-72.01058	498.13736	1740.45703	328.97958	141.88895	1536.58655	-77.45162	183.22017	1834.64307	
502	5.010	-50.59438	1435.33655	1781.45801				141.31821	1492.92786	1714.47473				288.99002	1286.46558	1715.27563	-86.68087	1279.41211	1514.51770	48.81300	1213.36035	1726.59790	149.45131	1334.19507	1516.68384	395.14783	1013.90405	1750.52759	-107.17188	1042.01013	1409.40601	424.88828	834.21619	1903.85107	-209.97351	802.78882	1387.35559	194.77087	911.16382	1755.76440	-63.47980	891.41705	1661.63367	162.67708	943.06531	1445.49194	259.38849	459.61176	1689.33032	-71.50174	492.80646	1748.16150	329.08789	142.33553	1537.95374	-85.46071	188.26491	1851.47070	
